<?xml version="1.0" encoding="UTF-8" standalone="no"?>
<!DOCTYPE svg PUBLIC "-//W3C//DTD SVG 1.1//EN"
 "http://www.w3.org/Graphics/SVG/1.1/DTD/svg11.dtd">
<!-- Generated by graphviz version 2.47.0 (20210316.0004)
 -->
<!-- Title: dependencies Pages: 1 -->
<svg width="1956pt" height="284pt"
 viewBox="0.00 0.00 1956.00 284.00" xmlns="http://www.w3.org/2000/svg" xmlns:xlink="http://www.w3.org/1999/xlink">
<g id="graph0" class="graph" transform="scale(1 1) rotate(0) translate(4 280)">
<title>dependencies</title>
<polygon fill="white" stroke="transparent" points="-4,4 -4,-280 1952,-280 1952,4 -4,4"/>
<text text-anchor="start" x="953.01" y="-42.4" font-family="sans-serif" font-weight="bold" font-size="14.00">Legend</text>
<polygon fill="#ffffb3" stroke="transparent" points="740,-10 740,-30 760,-30 760,-10 740,-10"/>
<text text-anchor="start" x="763.63" y="-15.4" font-family="sans-serif" font-size="14.00"> &#160;Declarations</text>
<polygon fill="#8dd3c7" stroke="transparent" points="853,-10 853,-30 873,-30 873,-10 853,-10"/>
<text text-anchor="start" x="876.73" y="-15.4" font-family="sans-serif" font-size="14.00"> &#160;Module</text>
<polygon fill="#80b1d3" stroke="transparent" points="939,-10 939,-30 959,-30 959,-10 939,-10"/>
<text text-anchor="start" x="962.78" y="-15.4" font-family="sans-serif" font-size="14.00"> &#160;Bootstrap</text>
<polygon fill="#fdb462" stroke="transparent" points="1036,-10 1036,-30 1056,-30 1056,-10 1036,-10"/>
<text text-anchor="start" x="1059.67" y="-15.4" font-family="sans-serif" font-size="14.00"> &#160;Providers</text>
<polygon fill="#fb8072" stroke="transparent" points="1132,-10 1132,-30 1152,-30 1152,-10 1132,-10"/>
<text text-anchor="start" x="1155.73" y="-15.4" font-family="sans-serif" font-size="14.00"> &#160;Exports</text>
<g id="clust1" class="cluster">
<title>cluster_AppModule</title>
<polygon fill="none" stroke="black" stroke-dasharray="1,5" points="8,-70 8,-268 1940,-268 1940,-70 8,-70"/>
</g>
<g id="clust2" class="cluster">
<title>cluster_AppModule_declarations</title>
<polygon fill="none" stroke="black" points="168,-78 168,-130 1932,-130 1932,-78 168,-78"/>
</g>
<g id="clust15" class="cluster">
<title>cluster_AppModule_imports</title>
<polygon fill="none" stroke="black" points="16,-78 16,-130 160,-130 160,-78 16,-78"/>
</g>
<g id="clust17" class="cluster">
<title>cluster_AppModule_bootstrap</title>
<polygon fill="none" stroke="black" points="964,-208 964,-260 1088,-260 1088,-208 964,-208"/>
</g>
<!-- AlertasComponent -->
<g id="node1" class="node">
<title>AlertasComponent</title>
<polygon fill="#ffffb3" stroke="black" points="1923.75,-122 1802.25,-122 1802.25,-86 1923.75,-86 1923.75,-122"/>
<text text-anchor="middle" x="1863" y="-99.8" font-family="Times,serif" font-size="14.00">AlertasComponent</text>
</g>
<!-- AppModule -->
<g id="node13" class="node">
<title>AppModule</title>
<polygon fill="#8dd3c7" stroke="black" points="1067.66,-187 1064.66,-191 1043.66,-191 1040.66,-187 984.34,-187 984.34,-151 1067.66,-151 1067.66,-187"/>
<text text-anchor="middle" x="1026" y="-164.8" font-family="Times,serif" font-size="14.00">AppModule</text>
</g>
<!-- AlertasComponent&#45;&gt;AppModule -->
<g id="edge1" class="edge">
<title>AlertasComponent&#45;&gt;AppModule</title>
<path fill="none" stroke="black" d="M1863,-122.09C1863,-145.13 1863,-182 1863,-182 1863,-182 1077.79,-182 1077.79,-182"/>
<polygon fill="black" stroke="black" points="1077.79,-178.5 1067.79,-182 1077.79,-185.5 1077.79,-178.5"/>
</g>
<!-- AppComponent -->
<g id="node2" class="node">
<title>AppComponent</title>
<polygon fill="#ffffb3" stroke="black" points="1783.94,-122 1678.06,-122 1678.06,-86 1783.94,-86 1783.94,-122"/>
<text text-anchor="middle" x="1731" y="-99.8" font-family="Times,serif" font-size="14.00">AppComponent</text>
</g>
<!-- AppComponent&#45;&gt;AppModule -->
<g id="edge2" class="edge">
<title>AppComponent&#45;&gt;AppModule</title>
<path fill="none" stroke="black" d="M1731,-122.04C1731,-143.66 1731,-177 1731,-177 1731,-177 1077.73,-177 1077.73,-177"/>
<polygon fill="black" stroke="black" points="1077.73,-173.5 1067.73,-177 1077.73,-180.5 1077.73,-173.5"/>
</g>
<!-- CadastrarComponent -->
<g id="node3" class="node">
<title>CadastrarComponent</title>
<polygon fill="#ffffb3" stroke="black" points="1660.47,-122 1525.53,-122 1525.53,-86 1660.47,-86 1660.47,-122"/>
<text text-anchor="middle" x="1593" y="-99.8" font-family="Times,serif" font-size="14.00">CadastrarComponent</text>
</g>
<!-- CadastrarComponent&#45;&gt;AppModule -->
<g id="edge3" class="edge">
<title>CadastrarComponent&#45;&gt;AppModule</title>
<path fill="none" stroke="black" d="M1593,-122.22C1593,-142.37 1593,-172 1593,-172 1593,-172 1077.69,-172 1077.69,-172"/>
<polygon fill="black" stroke="black" points="1077.69,-168.5 1067.69,-172 1077.69,-175.5 1077.69,-168.5"/>
</g>
<!-- EntrarComponent -->
<g id="node4" class="node">
<title>EntrarComponent</title>
<polygon fill="#ffffb3" stroke="black" points="1507.31,-122 1390.69,-122 1390.69,-86 1507.31,-86 1507.31,-122"/>
<text text-anchor="middle" x="1449" y="-99.8" font-family="Times,serif" font-size="14.00">EntrarComponent</text>
</g>
<!-- EntrarComponent&#45;&gt;AppModule -->
<g id="edge4" class="edge">
<title>EntrarComponent&#45;&gt;AppModule</title>
<path fill="none" stroke="black" d="M1449,-122.22C1449,-140.83 1449,-167 1449,-167 1449,-167 1077.72,-167 1077.72,-167"/>
<polygon fill="black" stroke="black" points="1077.72,-163.5 1067.72,-167 1077.72,-170.5 1077.72,-163.5"/>
</g>
<!-- InicioComponent -->
<g id="node5" class="node">
<title>InicioComponent</title>
<polygon fill="#ffffb3" stroke="black" points="1372.99,-122 1259.01,-122 1259.01,-86 1372.99,-86 1372.99,-122"/>
<text text-anchor="middle" x="1316" y="-99.8" font-family="Times,serif" font-size="14.00">InicioComponent</text>
</g>
<!-- InicioComponent&#45;&gt;AppModule -->
<g id="edge5" class="edge">
<title>InicioComponent&#45;&gt;AppModule</title>
<path fill="none" stroke="black" d="M1316,-122.03C1316,-139.06 1316,-162 1316,-162 1316,-162 1077.86,-162 1077.86,-162"/>
<polygon fill="black" stroke="black" points="1077.86,-158.5 1067.86,-162 1077.86,-165.5 1077.86,-158.5"/>
</g>
<!-- MenuComponent -->
<g id="node6" class="node">
<title>MenuComponent</title>
<polygon fill="#ffffb3" stroke="black" points="1240.99,-122 1127.01,-122 1127.01,-86 1240.99,-86 1240.99,-122"/>
<text text-anchor="middle" x="1184" y="-99.8" font-family="Times,serif" font-size="14.00">MenuComponent</text>
</g>
<!-- MenuComponent&#45;&gt;AppModule -->
<g id="edge6" class="edge">
<title>MenuComponent&#45;&gt;AppModule</title>
<path fill="none" stroke="black" d="M1184,-122.24C1184,-137.57 1184,-157 1184,-157 1184,-157 1077.93,-157 1077.93,-157"/>
<polygon fill="black" stroke="black" points="1077.93,-153.5 1067.93,-157 1077.93,-160.5 1077.93,-153.5"/>
</g>
<!-- PostagemDeletComponent -->
<g id="node7" class="node">
<title>PostagemDeletComponent</title>
<polygon fill="#ffffb3" stroke="black" points="1109.09,-122 942.91,-122 942.91,-86 1109.09,-86 1109.09,-122"/>
<text text-anchor="middle" x="1026" y="-99.8" font-family="Times,serif" font-size="14.00">PostagemDeletComponent</text>
</g>
<!-- PostagemDeletComponent&#45;&gt;AppModule -->
<g id="edge7" class="edge">
<title>PostagemDeletComponent&#45;&gt;AppModule</title>
<path fill="none" stroke="black" d="M1026,-122.11C1026,-122.11 1026,-140.99 1026,-140.99"/>
<polygon fill="black" stroke="black" points="1022.5,-140.99 1026,-150.99 1029.5,-140.99 1022.5,-140.99"/>
</g>
<!-- PostagemEditComponent -->
<g id="node8" class="node">
<title>PostagemEditComponent</title>
<polygon fill="#ffffb3" stroke="black" points="924.6,-122 765.4,-122 765.4,-86 924.6,-86 924.6,-122"/>
<text text-anchor="middle" x="845" y="-99.8" font-family="Times,serif" font-size="14.00">PostagemEditComponent</text>
</g>
<!-- PostagemEditComponent&#45;&gt;AppModule -->
<g id="edge8" class="edge">
<title>PostagemEditComponent&#45;&gt;AppModule</title>
<path fill="none" stroke="black" d="M845,-122.24C845,-137.57 845,-157 845,-157 845,-157 974.02,-157 974.02,-157"/>
<polygon fill="black" stroke="black" points="974.02,-160.5 984.02,-157 974.02,-153.5 974.02,-160.5"/>
</g>
<!-- RodapeComponent -->
<g id="node9" class="node">
<title>RodapeComponent</title>
<polygon fill="#ffffb3" stroke="black" points="747.1,-122 622.9,-122 622.9,-86 747.1,-86 747.1,-122"/>
<text text-anchor="middle" x="685" y="-99.8" font-family="Times,serif" font-size="14.00">RodapeComponent</text>
</g>
<!-- RodapeComponent&#45;&gt;AppModule -->
<g id="edge9" class="edge">
<title>RodapeComponent&#45;&gt;AppModule</title>
<path fill="none" stroke="black" d="M685,-122.03C685,-139.06 685,-162 685,-162 685,-162 974.19,-162 974.19,-162"/>
<polygon fill="black" stroke="black" points="974.19,-165.5 984.19,-162 974.19,-158.5 974.19,-165.5"/>
</g>
<!-- TemaComponent -->
<g id="node10" class="node">
<title>TemaComponent</title>
<polygon fill="#ffffb3" stroke="black" points="604.7,-122 491.3,-122 491.3,-86 604.7,-86 604.7,-122"/>
<text text-anchor="middle" x="548" y="-99.8" font-family="Times,serif" font-size="14.00">TemaComponent</text>
</g>
<!-- TemaComponent&#45;&gt;AppModule -->
<g id="edge10" class="edge">
<title>TemaComponent&#45;&gt;AppModule</title>
<path fill="none" stroke="black" d="M548,-122.22C548,-140.83 548,-167 548,-167 548,-167 974,-167 974,-167"/>
<polygon fill="black" stroke="black" points="974,-170.5 984,-167 974,-163.5 974,-170.5"/>
</g>
<!-- TemaDeletComponent -->
<g id="node11" class="node">
<title>TemaDeletComponent</title>
<polygon fill="#ffffb3" stroke="black" points="473.52,-122 330.48,-122 330.48,-86 473.52,-86 473.52,-122"/>
<text text-anchor="middle" x="402" y="-99.8" font-family="Times,serif" font-size="14.00">TemaDeletComponent</text>
</g>
<!-- TemaDeletComponent&#45;&gt;AppModule -->
<g id="edge11" class="edge">
<title>TemaDeletComponent&#45;&gt;AppModule</title>
<path fill="none" stroke="black" d="M402,-122.22C402,-142.37 402,-172 402,-172 402,-172 974.09,-172 974.09,-172"/>
<polygon fill="black" stroke="black" points="974.09,-175.5 984.09,-172 974.09,-168.5 974.09,-175.5"/>
</g>
<!-- TemaEditComponent -->
<g id="node12" class="node">
<title>TemaEditComponent</title>
<polygon fill="#ffffb3" stroke="black" points="312.04,-122 175.96,-122 175.96,-86 312.04,-86 312.04,-122"/>
<text text-anchor="middle" x="244" y="-99.8" font-family="Times,serif" font-size="14.00">TemaEditComponent</text>
</g>
<!-- TemaEditComponent&#45;&gt;AppModule -->
<g id="edge12" class="edge">
<title>TemaEditComponent&#45;&gt;AppModule</title>
<path fill="none" stroke="black" d="M244,-122.04C244,-143.66 244,-177 244,-177 244,-177 974.23,-177 974.23,-177"/>
<polygon fill="black" stroke="black" points="974.23,-180.5 984.23,-177 974.23,-173.5 974.23,-180.5"/>
</g>
<!-- AppComponent  -->
<g id="node15" class="node">
<title>AppComponent </title>
<polygon fill="#80b1d3" stroke="black" points="1080.44,-252 971.56,-252 971.56,-216 1080.44,-216 1080.44,-252"/>
<text text-anchor="middle" x="1026" y="-229.8" font-family="Times,serif" font-size="14.00">AppComponent </text>
</g>
<!-- AppModule&#45;&gt;AppComponent  -->
<g id="edge14" class="edge">
<title>AppModule&#45;&gt;AppComponent </title>
<path fill="none" stroke="black" stroke-dasharray="1,5" d="M1026,-187.11C1026,-187.11 1026,-205.99 1026,-205.99"/>
<polygon fill="black" stroke="black" points="1022.5,-205.99 1026,-215.99 1029.5,-205.99 1022.5,-205.99"/>
</g>
<!-- AppRoutingModule -->
<g id="node14" class="node">
<title>AppRoutingModule</title>
<polygon fill="#8dd3c7" stroke="black" points="152.27,-122 149.27,-126 128.27,-126 125.27,-122 23.73,-122 23.73,-86 152.27,-86 152.27,-122"/>
<text text-anchor="middle" x="88" y="-99.8" font-family="Times,serif" font-size="14.00">AppRoutingModule</text>
</g>
<!-- AppRoutingModule&#45;&gt;AppModule -->
<g id="edge13" class="edge">
<title>AppRoutingModule&#45;&gt;AppModule</title>
<path fill="none" stroke="black" d="M88,-122.09C88,-145.13 88,-182 88,-182 88,-182 974.18,-182 974.18,-182"/>
<polygon fill="black" stroke="black" points="974.18,-185.5 984.18,-182 974.18,-178.5 974.18,-185.5"/>
</g>
</g>
</svg>
