<?xml version="1.0" encoding="UTF-8" standalone="no"?>
<!DOCTYPE svg PUBLIC "-//W3C//DTD SVG 1.1//EN"
 "http://www.w3.org/Graphics/SVG/1.1/DTD/svg11.dtd">
<!-- Generated by graphviz version 2.47.0 (20210316.0004)
 -->
<!-- Title: dependencies Pages: 1 -->
<svg width="1956pt" height="284pt"
 viewBox="0.00 0.00 1956.00 284.00" xmlns="http://www.w3.org/2000/svg" xmlns:xlink="http://www.w3.org/1999/xlink">
<g id="graph0" class="graph" transform="scale(1 1) rotate(0) translate(4 280)">
<title>dependencies</title>
<polygon fill="white" stroke="transparent" points="-4,4 -4,-280 1952,-280 1952,4 -4,4"/>
<text text-anchor="start" x="953.01" y="-42.4" font-family="sans-serif" font-weight="bold" font-size="14.00">Legend</text>
<polygon fill="#ffffb3" stroke="transparent" points="740,-10 740,-30 760,-30 760,-10 740,-10"/>
<text text-anchor="start" x="763.63" y="-15.4" font-family="sans-serif" font-size="14.00"> &#160;Declarations</text>
<polygon fill="#8dd3c7" stroke="transparent" points="853,-10 853,-30 873,-30 873,-10 853,-10"/>
<text text-anchor="start" x="876.73" y="-15.4" font-family="sans-serif" font-size="14.00"> &#160;Module</text>
<polygon fill="#80b1d3" stroke="transparent" points="939,-10 939,-30 959,-30 959,-10 939,-10"/>
<text text-anchor="start" x="962.78" y="-15.4" font-family="sans-serif" font-size="14.00"> &#160;Bootstrap</text>
<polygon fill="#fdb462" stroke="transparent" points="1036,-10 1036,-30 1056,-30 1056,-10 1036,-10"/>
<text text-anchor="start" x="1059.67" y="-15.4" font-family="sans-serif" font-size="14.00"> &#160;Providers</text>
<polygon fill="#fb8072" stroke="transparent" points="1132,-10 1132,-30 1152,-30 1152,-10 1132,-10"/>
<text text-anchor="start" x="1155.73" y="-15.4" font-family="sans-serif" font-size="14.00"> &#160;Exports</text>
<g id="clust1" class="cluster">
<title>cluster_AppModule</title>
<polygon fill="none" stroke="black" stroke-dasharray="1,5" points="8,-70 8,-268 1940,-268 1940,-70 8,-70"/>
</g>
<g id="clust15" class="cluster">
<title>cluster_AppModule_imports</title>
<polygon fill="none" stroke="black" points="1788,-78 1788,-130 1932,-130 1932,-78 1788,-78"/>
</g>
<g id="clust17" class="cluster">
<title>cluster_AppModule_bootstrap</title>
<polygon fill="none" stroke="black" points="970,-208 970,-260 1094,-260 1094,-208 970,-208"/>
</g>
<g id="clust2" class="cluster">
<title>cluster_AppModule_declarations</title>
<polygon fill="none" stroke="black" points="16,-78 16,-130 1780,-130 1780,-78 16,-78"/>
</g>
<!-- AlertasComponent -->
<g id="node1" class="node">
<title>AlertasComponent</title>
<polygon fill="#ffffb3" stroke="black" points="1771.75,-122 1650.25,-122 1650.25,-86 1771.75,-86 1771.75,-122"/>
<text text-anchor="middle" x="1711" y="-99.8" font-family="Times,serif" font-size="14.00">AlertasComponent</text>
</g>
<!-- AppModule -->
<g id="node13" class="node">
<title>AppModule</title>
<polygon fill="#8dd3c7" stroke="black" points="1073.66,-187 1070.66,-191 1049.66,-191 1046.66,-187 990.34,-187 990.34,-151 1073.66,-151 1073.66,-187"/>
<text text-anchor="middle" x="1032" y="-164.8" font-family="Times,serif" font-size="14.00">AppModule</text>
</g>
<!-- AlertasComponent&#45;&gt;AppModule -->
<g id="edge1" class="edge">
<title>AlertasComponent&#45;&gt;AppModule</title>
<path fill="none" stroke="black" d="M1711,-122.04C1711,-143.66 1711,-177 1711,-177 1711,-177 1083.71,-177 1083.71,-177"/>
<polygon fill="black" stroke="black" points="1083.71,-173.5 1073.71,-177 1083.71,-180.5 1083.71,-173.5"/>
</g>
<!-- AppComponent -->
<g id="node2" class="node">
<title>AppComponent</title>
<polygon fill="#ffffb3" stroke="black" points="1631.94,-122 1526.06,-122 1526.06,-86 1631.94,-86 1631.94,-122"/>
<text text-anchor="middle" x="1579" y="-99.8" font-family="Times,serif" font-size="14.00">AppComponent</text>
</g>
<!-- AppComponent&#45;&gt;AppModule -->
<g id="edge2" class="edge">
<title>AppComponent&#45;&gt;AppModule</title>
<path fill="none" stroke="black" d="M1579,-122.22C1579,-142.37 1579,-172 1579,-172 1579,-172 1084.01,-172 1084.01,-172"/>
<polygon fill="black" stroke="black" points="1084.01,-168.5 1074.01,-172 1084.01,-175.5 1084.01,-168.5"/>
</g>
<!-- CadastrarComponent -->
<g id="node3" class="node">
<title>CadastrarComponent</title>
<polygon fill="#ffffb3" stroke="black" points="1508.47,-122 1373.53,-122 1373.53,-86 1508.47,-86 1508.47,-122"/>
<text text-anchor="middle" x="1441" y="-99.8" font-family="Times,serif" font-size="14.00">CadastrarComponent</text>
</g>
<!-- CadastrarComponent&#45;&gt;AppModule -->
<g id="edge3" class="edge">
<title>CadastrarComponent&#45;&gt;AppModule</title>
<path fill="none" stroke="black" d="M1441,-122.22C1441,-140.83 1441,-167 1441,-167 1441,-167 1083.85,-167 1083.85,-167"/>
<polygon fill="black" stroke="black" points="1083.85,-163.5 1073.85,-167 1083.85,-170.5 1083.85,-163.5"/>
</g>
<!-- EntrarComponent -->
<g id="node4" class="node">
<title>EntrarComponent</title>
<polygon fill="#ffffb3" stroke="black" points="1355.31,-122 1238.69,-122 1238.69,-86 1355.31,-86 1355.31,-122"/>
<text text-anchor="middle" x="1297" y="-99.8" font-family="Times,serif" font-size="14.00">EntrarComponent</text>
</g>
<!-- EntrarComponent&#45;&gt;AppModule -->
<g id="edge4" class="edge">
<title>EntrarComponent&#45;&gt;AppModule</title>
<path fill="none" stroke="black" d="M1297,-122.03C1297,-139.06 1297,-162 1297,-162 1297,-162 1083.7,-162 1083.7,-162"/>
<polygon fill="black" stroke="black" points="1083.7,-158.5 1073.7,-162 1083.7,-165.5 1083.7,-158.5"/>
</g>
<!-- InicioComponent -->
<g id="node5" class="node">
<title>InicioComponent</title>
<polygon fill="#ffffb3" stroke="black" points="1220.99,-122 1107.01,-122 1107.01,-86 1220.99,-86 1220.99,-122"/>
<text text-anchor="middle" x="1164" y="-99.8" font-family="Times,serif" font-size="14.00">InicioComponent</text>
</g>
<!-- InicioComponent&#45;&gt;AppModule -->
<g id="edge5" class="edge">
<title>InicioComponent&#45;&gt;AppModule</title>
<path fill="none" stroke="black" d="M1164,-122.24C1164,-137.57 1164,-157 1164,-157 1164,-157 1083.77,-157 1083.77,-157"/>
<polygon fill="black" stroke="black" points="1083.77,-153.5 1073.77,-157 1083.77,-160.5 1083.77,-153.5"/>
</g>
<!-- MenuComponent -->
<g id="node6" class="node">
<title>MenuComponent</title>
<polygon fill="#ffffb3" stroke="black" points="1088.99,-122 975.01,-122 975.01,-86 1088.99,-86 1088.99,-122"/>
<text text-anchor="middle" x="1032" y="-99.8" font-family="Times,serif" font-size="14.00">MenuComponent</text>
</g>
<!-- MenuComponent&#45;&gt;AppModule -->
<g id="edge6" class="edge">
<title>MenuComponent&#45;&gt;AppModule</title>
<path fill="none" stroke="black" d="M1032,-122.11C1032,-122.11 1032,-140.99 1032,-140.99"/>
<polygon fill="black" stroke="black" points="1028.5,-140.99 1032,-150.99 1035.5,-140.99 1028.5,-140.99"/>
</g>
<!-- PostagemDeletComponent -->
<g id="node7" class="node">
<title>PostagemDeletComponent</title>
<polygon fill="#ffffb3" stroke="black" points="957.09,-122 790.91,-122 790.91,-86 957.09,-86 957.09,-122"/>
<text text-anchor="middle" x="874" y="-99.8" font-family="Times,serif" font-size="14.00">PostagemDeletComponent</text>
</g>
<!-- PostagemDeletComponent&#45;&gt;AppModule -->
<g id="edge7" class="edge">
<title>PostagemDeletComponent&#45;&gt;AppModule</title>
<path fill="none" stroke="black" d="M874,-122.24C874,-137.57 874,-157 874,-157 874,-157 980.07,-157 980.07,-157"/>
<polygon fill="black" stroke="black" points="980.07,-160.5 990.07,-157 980.07,-153.5 980.07,-160.5"/>
</g>
<!-- PostagemEditComponent -->
<g id="node8" class="node">
<title>PostagemEditComponent</title>
<polygon fill="#ffffb3" stroke="black" points="772.6,-122 613.4,-122 613.4,-86 772.6,-86 772.6,-122"/>
<text text-anchor="middle" x="693" y="-99.8" font-family="Times,serif" font-size="14.00">PostagemEditComponent</text>
</g>
<!-- PostagemEditComponent&#45;&gt;AppModule -->
<g id="edge8" class="edge">
<title>PostagemEditComponent&#45;&gt;AppModule</title>
<path fill="none" stroke="black" d="M693,-122.03C693,-139.06 693,-162 693,-162 693,-162 980.09,-162 980.09,-162"/>
<polygon fill="black" stroke="black" points="980.09,-165.5 990.09,-162 980.09,-158.5 980.09,-165.5"/>
</g>
<!-- RodapeComponent -->
<g id="node9" class="node">
<title>RodapeComponent</title>
<polygon fill="#ffffb3" stroke="black" points="595.1,-122 470.9,-122 470.9,-86 595.1,-86 595.1,-122"/>
<text text-anchor="middle" x="533" y="-99.8" font-family="Times,serif" font-size="14.00">RodapeComponent</text>
</g>
<!-- RodapeComponent&#45;&gt;AppModule -->
<g id="edge9" class="edge">
<title>RodapeComponent&#45;&gt;AppModule</title>
<path fill="none" stroke="black" d="M533,-122.22C533,-140.83 533,-167 533,-167 533,-167 980.31,-167 980.31,-167"/>
<polygon fill="black" stroke="black" points="980.31,-170.5 990.31,-167 980.31,-163.5 980.31,-170.5"/>
</g>
<!-- TemaComponent -->
<g id="node10" class="node">
<title>TemaComponent</title>
<polygon fill="#ffffb3" stroke="black" points="452.7,-122 339.3,-122 339.3,-86 452.7,-86 452.7,-122"/>
<text text-anchor="middle" x="396" y="-99.8" font-family="Times,serif" font-size="14.00">TemaComponent</text>
</g>
<!-- TemaComponent&#45;&gt;AppModule -->
<g id="edge10" class="edge">
<title>TemaComponent&#45;&gt;AppModule</title>
<path fill="none" stroke="black" d="M396,-122.22C396,-142.37 396,-172 396,-172 396,-172 980.27,-172 980.27,-172"/>
<polygon fill="black" stroke="black" points="980.27,-175.5 990.27,-172 980.27,-168.5 980.27,-175.5"/>
</g>
<!-- TemaDeletComponent -->
<g id="node11" class="node">
<title>TemaDeletComponent</title>
<polygon fill="#ffffb3" stroke="black" points="321.52,-122 178.48,-122 178.48,-86 321.52,-86 321.52,-122"/>
<text text-anchor="middle" x="250" y="-99.8" font-family="Times,serif" font-size="14.00">TemaDeletComponent</text>
</g>
<!-- TemaDeletComponent&#45;&gt;AppModule -->
<g id="edge11" class="edge">
<title>TemaDeletComponent&#45;&gt;AppModule</title>
<path fill="none" stroke="black" d="M250,-122.04C250,-143.66 250,-177 250,-177 250,-177 980.23,-177 980.23,-177"/>
<polygon fill="black" stroke="black" points="980.23,-180.5 990.23,-177 980.23,-173.5 980.23,-180.5"/>
</g>
<!-- TemaEditComponent -->
<g id="node12" class="node">
<title>TemaEditComponent</title>
<polygon fill="#ffffb3" stroke="black" points="160.04,-122 23.96,-122 23.96,-86 160.04,-86 160.04,-122"/>
<text text-anchor="middle" x="92" y="-99.8" font-family="Times,serif" font-size="14.00">TemaEditComponent</text>
</g>
<!-- TemaEditComponent&#45;&gt;AppModule -->
<g id="edge12" class="edge">
<title>TemaEditComponent&#45;&gt;AppModule</title>
<path fill="none" stroke="black" d="M92,-122.09C92,-145.13 92,-182 92,-182 92,-182 980.09,-182 980.09,-182"/>
<polygon fill="black" stroke="black" points="980.09,-185.5 990.09,-182 980.09,-178.5 980.09,-185.5"/>
</g>
<!-- AppComponent  -->
<g id="node15" class="node">
<title>AppComponent </title>
<polygon fill="#80b1d3" stroke="black" points="1086.44,-252 977.56,-252 977.56,-216 1086.44,-216 1086.44,-252"/>
<text text-anchor="middle" x="1032" y="-229.8" font-family="Times,serif" font-size="14.00">AppComponent </text>
</g>
<!-- AppModule&#45;&gt;AppComponent  -->
<g id="edge14" class="edge">
<title>AppModule&#45;&gt;AppComponent </title>
<path fill="none" stroke="black" stroke-dasharray="1,5" d="M1032,-187.11C1032,-187.11 1032,-205.99 1032,-205.99"/>
<polygon fill="black" stroke="black" points="1028.5,-205.99 1032,-215.99 1035.5,-205.99 1028.5,-205.99"/>
</g>
<!-- AppRoutingModule -->
<g id="node14" class="node">
<title>AppRoutingModule</title>
<polygon fill="#8dd3c7" stroke="black" points="1924.27,-122 1921.27,-126 1900.27,-126 1897.27,-122 1795.73,-122 1795.73,-86 1924.27,-86 1924.27,-122"/>
<text text-anchor="middle" x="1860" y="-99.8" font-family="Times,serif" font-size="14.00">AppRoutingModule</text>
</g>
<!-- AppRoutingModule&#45;&gt;AppModule -->
<g id="edge13" class="edge">
<title>AppRoutingModule&#45;&gt;AppModule</title>
<path fill="none" stroke="black" d="M1860,-122.09C1860,-145.13 1860,-182 1860,-182 1860,-182 1083.91,-182 1083.91,-182"/>
<polygon fill="black" stroke="black" points="1083.91,-178.5 1073.91,-182 1083.91,-185.5 1083.91,-178.5"/>
</g>
</g>
</svg>
